<mxfile host="app.diagrams.net" agent="Mozilla/5.0 (Windows NT 10.0; Win64; x64) AppleWebKit/537.36 (KHTML, like Gecko) Chrome/131.0.0.0 Safari/537.36" version="26.0.5">
  <diagram id="Ht1M8jgEwFfnCIfOTk4-" name="Page-1">
    <mxGraphModel dx="3144" dy="1046" grid="1" gridSize="10" guides="1" tooltips="1" connect="1" arrows="1" fold="1" page="1" pageScale="1" pageWidth="1169" pageHeight="827" math="0" shadow="0">
      <root>
        <mxCell id="0" />
        <mxCell id="1" parent="0" />
        <mxCell id="fgc3vrZuvSIC2WE5N4Ma-28" style="edgeStyle=orthogonalEdgeStyle;rounded=0;orthogonalLoop=1;jettySize=auto;html=1;entryX=0.5;entryY=1;entryDx=0;entryDy=0;entryPerimeter=0;" edge="1" parent="1" source="UEzPUAAOIrF-is8g5C7q-85" target="fgc3vrZuvSIC2WE5N4Ma-27">
          <mxGeometry relative="1" as="geometry" />
        </mxCell>
        <mxCell id="fgc3vrZuvSIC2WE5N4Ma-29" style="edgeStyle=orthogonalEdgeStyle;rounded=0;orthogonalLoop=1;jettySize=auto;html=1;entryX=0.5;entryY=1;entryDx=0;entryDy=0;" edge="1" parent="1" source="UEzPUAAOIrF-is8g5C7q-98" target="fgc3vrZuvSIC2WE5N4Ma-15">
          <mxGeometry relative="1" as="geometry" />
        </mxCell>
        <mxCell id="UEzPUAAOIrF-is8g5C7q-74" value="Amazon Web Services (AWS)" style="points=[[0,0],[0.25,0],[0.5,0],[0.75,0],[1,0],[1,0.25],[1,0.5],[1,0.75],[1,1],[0.75,1],[0.5,1],[0.25,1],[0,1],[0,0.75],[0,0.5],[0,0.25]];outlineConnect=0;gradientColor=none;html=1;whiteSpace=wrap;fontSize=12;fontStyle=0;shape=mxgraph.aws4.group;grIcon=mxgraph.aws4.group_aws_cloud_alt;strokeColor=#232F3E;fillColor=none;verticalAlign=top;align=left;spacingLeft=30;fontColor=#232F3E;dashed=0;labelBackgroundColor=#ffffff;container=1;pointerEvents=0;collapsible=0;recursiveResize=0;" parent="1" vertex="1">
          <mxGeometry x="-1060" y="125" width="1010" height="690" as="geometry" />
        </mxCell>
        <mxCell id="fgc3vrZuvSIC2WE5N4Ma-13" value="" style="rounded=0;whiteSpace=wrap;html=1;strokeColor=light-dark(#a6a6a6, #ededed);fillColor=none;" vertex="1" parent="UEzPUAAOIrF-is8g5C7q-74">
          <mxGeometry x="20" y="30" width="970" height="640" as="geometry" />
        </mxCell>
        <mxCell id="fgc3vrZuvSIC2WE5N4Ma-6" value="CloudFormation Stack using AWS Cloud Development Kit (AWS CDK)" style="outlineConnect=0;dashed=0;verticalLabelPosition=middle;verticalAlign=middle;align=left;html=1;shape=mxgraph.aws3.stack_aws_cloudformation;fillColor=#759C3E;gradientColor=none;labelPosition=right;" vertex="1" parent="UEzPUAAOIrF-is8g5C7q-74">
          <mxGeometry x="20" y="30" width="73.5" height="58.5" as="geometry" />
        </mxCell>
        <mxCell id="fgc3vrZuvSIC2WE5N4Ma-37" value="" style="rounded=0;whiteSpace=wrap;html=1;strokeColor=light-dark(#a6a6a6, #ededed);dashed=1;dashPattern=12 12;fillColor=none;" vertex="1" parent="UEzPUAAOIrF-is8g5C7q-74">
          <mxGeometry x="130" y="90" width="820" height="550" as="geometry" />
        </mxCell>
        <mxCell id="UEzPUAAOIrF-is8g5C7q-87" value="Amazon&lt;br&gt;DynamoDB" style="outlineConnect=0;fontColor=#232F3E;gradientColor=#4D72F3;gradientDirection=north;fillColor=#3334B9;strokeColor=#ffffff;dashed=0;verticalLabelPosition=bottom;verticalAlign=top;align=center;html=1;fontSize=12;fontStyle=0;aspect=fixed;shape=mxgraph.aws4.resourceIcon;resIcon=mxgraph.aws4.dynamodb;labelBackgroundColor=#ffffff;" parent="1" vertex="1">
          <mxGeometry x="-632" y="625" width="78" height="78" as="geometry" />
        </mxCell>
        <mxCell id="fgc3vrZuvSIC2WE5N4Ma-34" style="edgeStyle=orthogonalEdgeStyle;rounded=0;orthogonalLoop=1;jettySize=auto;html=1;" edge="1" parent="1" source="fgc3vrZuvSIC2WE5N4Ma-15" target="UEzPUAAOIrF-is8g5C7q-85">
          <mxGeometry relative="1" as="geometry" />
        </mxCell>
        <mxCell id="fgc3vrZuvSIC2WE5N4Ma-15" value="Reservation Website" style="shape=image;verticalLabelPosition=bottom;labelBackgroundColor=#ffffff;verticalAlign=top;aspect=fixed;imageAspect=0;image=data:image/svg+xml,PHN2ZyB4bWxuczpjYz0iaHR0cDovL2NyZWF0aXZlY29tbW9ucy5vcmcvbnMjIiB4bWxuczpkYz0iaHR0cDovL3B1cmwub3JnL2RjL2VsZW1lbnRzLzEuMS8iIHhtbG5zOmlua3NjYXBlPSJodHRwOi8vd3d3Lmlua3NjYXBlLm9yZy9uYW1lc3BhY2VzL2lua3NjYXBlIiB4bWxuczpyZGY9Imh0dHA6Ly93d3cudzMub3JnLzE5OTkvMDIvMjItcmRmLXN5bnRheC1ucyMiIHhtbG5zOnNvZGlwb2RpPSJodHRwOi8vc29kaXBvZGkuc291cmNlZm9yZ2UubmV0L0RURC9zb2RpcG9kaS0wLmR0ZCIgeG1sbnM6c3ZnPSJodHRwOi8vd3d3LnczLm9yZy8yMDAwL3N2ZyIgeG1sbnM9Imh0dHA6Ly93d3cudzMub3JnLzIwMDAvc3ZnIiB4bWxuczp4bGluaz0iaHR0cDovL3d3dy53My5vcmcvMTk5OS94bGluayIgdmVyc2lvbj0iMS4xIiBpZD0ic3ZnMTIyNjUiIGlua3NjYXBlOnZlcnNpb249IjAuOTIuMyAoMjQwNTU0NiwgMjAxOC0wMy0xMSkiIHNvZGlwb2RpOmRvY25hbWU9IndlYnNpdGVzXzIuc3ZnIiB4PSIwcHgiIHk9IjBweCIgdmlld0JveD0iMCAwIDUxLjIyIDM3LjUxIiBzdHlsZT0iZW5hYmxlLWJhY2tncm91bmQ6bmV3IDAgMCA1MS4yMiAzNy41MTsiIHhtbDpzcGFjZT0icHJlc2VydmUiPiYjeGE7PHNvZGlwb2RpOm5hbWVkdmlldyBib3JkZXJjb2xvcj0iIzY2NjY2NiIgYm9yZGVyb3BhY2l0eT0iMSIgZml0LW1hcmdpbi1ib3R0b209IjAiIGZpdC1tYXJnaW4tbGVmdD0iMCIgZml0LW1hcmdpbi1yaWdodD0iMCIgZml0LW1hcmdpbi10b3A9IjAiIGdyaWR0b2xlcmFuY2U9IjEwIiBndWlkZXRvbGVyYW5jZT0iMTAiIGlkPSJuYW1lZHZpZXcxMjI2NyIgaW5rc2NhcGU6Y3VycmVudC1sYXllcj0ic3ZnMTIyNjUiIGlua3NjYXBlOmN4PSIzMS45NzI1MjgiIGlua3NjYXBlOmN5PSIxNS4yODA0MDUiIGlua3NjYXBlOnBhZ2VvcGFjaXR5PSIwIiBpbmtzY2FwZTpwYWdlc2hhZG93PSIyIiBpbmtzY2FwZTp3aW5kb3ctaGVpZ2h0PSIxMDE3IiBpbmtzY2FwZTp3aW5kb3ctbWF4aW1pemVkPSIxIiBpbmtzY2FwZTp3aW5kb3ctd2lkdGg9IjE5MjAiIGlua3NjYXBlOndpbmRvdy14PSItOCIgaW5rc2NhcGU6d2luZG93LXk9Ii04IiBpbmtzY2FwZTp6b29tPSI4LjY2ODg0MDYiIG9iamVjdHRvbGVyYW5jZT0iMTAiIHBhZ2Vjb2xvcj0iI2ZmZmZmZiIgc2hvd2dyaWQ9ImZhbHNlIj4mI3hhOwk8L3NvZGlwb2RpOm5hbWVkdmlldz4mI3hhOzxnIGlkPSJnMTIyNjMiPiYjeGE7CTx0aXRsZSBpZD0idGl0bGUxMjIxMiI+UGFnZS0xPC90aXRsZT4mI3hhOwk8ZyBpZD0iZ3JvdXA0MzI0LTEiPiYjeGE7CQk8dGl0bGUgaWQ9InRpdGxlMTIyMTQiPldlYnNpdGVzICMyPC90aXRsZT4mI3hhOwkJPGcgaWQ9Imdyb3VwNDMyNS0yIj4mI3hhOwkJCTx0aXRsZSBpZD0idGl0bGUxMjIxNiI+TG9naWMgQXBwcyAjMTwvdGl0bGU+JiN4YTsJCQk8ZyBpZD0ic2hhcGU0MzI2LTMiPiYjeGE7CQkJCTx0aXRsZSBpZD0idGl0bGUxMjIxOCI+U2hlZXQuNDMyNjwvdGl0bGU+JiN4YTsJCQkJPHBhdGggaWQ9InBhdGgxMjIyMCIgaW5rc2NhcGU6Y29ubmVjdG9yLWN1cnZhdHVyZT0iMCIgc3R5bGU9ImZpbGw6IzNGNTc2NTsiIGQ9Ik00OS4yNywwQzEuODksMCwxLjg5LDAsMS44OSwwICAgICAgQzAuMzIsMCwwLDAuMzgsMCwxLjk1YzAsMzMuNjcsMCwzMy42NywwLDMzLjY3YzAsMS41NywwLjMyLDEuODksMS44OSwxLjg5YzQ3LjM4LDAsNDcuMzgsMCw0Ny4zOCwwYzEuNjQsMCwxLjk1LTAuMzIsMS45NS0xLjg5ICAgICAgYzAtMzMuNjcsMC0zMy42NywwLTMzLjY3QzUxLjIyLDAuMzgsNTAuOTEsMCw0OS4yNywweiIvPiYjeGE7CQkJPC9nPiYjeGE7CQkJPGcgaWQ9InNoYXBlNDMyNy01IiB0cmFuc2Zvcm09InRyYW5zbGF0ZSgxLjI2MDAzLC0xLjc2MTk4KSI+JiN4YTsJCQkJPHRpdGxlIGlkPSJ0aXRsZTEyMjIzIj5TaGVldC40MzI3PC90aXRsZT4mI3hhOwkJCQk8cGF0aCBpZD0icGF0aDEyMjI1IiBpbmtzY2FwZTpjb25uZWN0b3ItY3VydmF0dXJlPSIwIiBzdHlsZT0iZmlsbDojMDBCMDUwOyIgZD0iTTAsOC44MXYyOC43aDQ4LjdWOC44MUgweiIvPiYjeGE7CQkJPC9nPiYjeGE7CQkJPGcgaWQ9InNoYXBlNDMyOC03IiB0cmFuc2Zvcm09InRyYW5zbGF0ZSgxLjMyMzAzLC0zMS40NjM5KSI+JiN4YTsJCQkJPHRpdGxlIGlkPSJ0aXRsZTEyMjI4Ij5TaGVldC40MzI4PC90aXRsZT4mI3hhOwkJCQk8cGF0aCBpZD0icGF0aDEyMjMwIiBpbmtzY2FwZTpjb25uZWN0b3ItY3VydmF0dXJlPSIwIiBzdHlsZT0iZmlsbDojMjZBOUUwOyIgZD0iTTUuMSwzNC45OWMwLDEuNDUtMS4xMywyLjUyLTIuNTIsMi41MiAgICAgIEMxLjIsMzcuNTEsMCwzNi40NCwwLDM0Ljk5YzAtMS4zOSwxLjItMi41MiwyLjU4LTIuNTJDMy45NywzMi40Nyw1LjEsMzMuNiw1LjEsMzQuOTl6Ii8+JiN4YTsJCQk8L2c+JiN4YTsJCQk8ZyBpZD0ic2hhcGU0MzI5LTkiIHRyYW5zZm9ybT0idHJhbnNsYXRlKDIuMzk0MDUsLTMyLjg0ODQpIj4mI3hhOwkJCQk8dGl0bGUgaWQ9InRpdGxlMTIyMzMiPlNoZWV0LjQzMjk8L3RpdGxlPiYjeGE7CQkJCTxwYXRoIGlkPSJwYXRoMTIyMzUiIGlua3NjYXBlOmNvbm5lY3Rvci1jdXJ2YXR1cmU9IjAiIHN0eWxlPSJmaWxsOiNGRkZGRkY7IiBkPSJNMS4wMSwzNi4xMmwwLjg4LTAuODJIMS4yTDAsMzYuMzdsMS4yLDEuMTQgICAgICBoMC42OWwtMC44OC0wLjg5aDIuMDF2LTAuNUgxLjAxeiIvPiYjeGE7CQkJPC9nPiYjeGE7CQkJPGcgaWQ9InNoYXBlNDMzMC0xMSIgdHJhbnNmb3JtPSJ0cmFuc2xhdGUoNy4zNzExNiwtMzIuODQ4NCkiPiYjeGE7CQkJCTx0aXRsZSBpZD0idGl0bGUxMjIzOCI+U2hlZXQuNDMzMDwvdGl0bGU+JiN4YTsJCQkJPHBhdGggaWQ9InBhdGgxMjI0MCIgaW5rc2NhcGU6Y29ubmVjdG9yLWN1cnZhdHVyZT0iMCIgc3R5bGU9ImZpbGw6I0ZGRkZGRjsiIGQ9Ik0wLDM1LjExdjIuNGg0Mi42NXYtMi40SDB6Ii8+JiN4YTsJCQk8L2c+JiN4YTsJCQk8ZyBpZD0ic2hhcGU0MzMxLTEzIiB0cmFuc2Zvcm09InRyYW5zbGF0ZSgxMy4xNjczLC0xMC45NDk1KSI+JiN4YTsJCQkJPHRpdGxlIGlkPSJ0aXRsZTEyMjQzIj5TaGVldC40MzMxPC90aXRsZT4mI3hhOwkJCQk8cGF0aCBpZD0icGF0aDEyMjQ1IiBpbmtzY2FwZTpjb25uZWN0b3ItY3VydmF0dXJlPSIwIiBzdHlsZT0iZmlsbDojRkZGRkZGOyIgZD0iTTI0LDMyLjAzYzAtMS4yNi0xLTIuMzMtMi4zMy0yLjMzICAgICAgYy0zLjUzLDAtMy41MywwLTMuNTMsMGMtMy4wOC0zLjAyLTMuMDgtMy4wMi0zLjA4LTMuMDJjLTcuNTYsMC03LjU2LDAtNy41NiwwYy0zLjIyLDMuMDgtMy4yMiwzLjA4LTMuMjIsMy4wOCAgICAgIGMtMS45NSwwLjE5LTMuNTIsMS44My0zLjUyLDMuODRjMCwwLjc2LDAsMC43NiwwLDAuNzZjLTAuNzYsMC0wLjc2LDAtMC43NiwwYzAsMS41MSwwLDEuNTEsMCwxLjUxYzMuMjgsMCwzLjI4LDAsMy4yOCwwICAgICAgYzAuMzEsMC45NCwxLjE5LDEuNjQsMi4yLDEuNjRzMS44My0wLjcsMi4xNC0xLjY0YzkuNTgsMCw5LjU4LDAsOS41OCwwYzAuMzgsMC45NCwxLjIsMS42NCwyLjIsMS42NGMxLjAxLDAsMS44My0wLjcsMi4yMS0xLjY0ICAgICAgYzMuMTUsMCwzLjE1LDAsMy4xNSwwYzAtMS41MSwwLTEuNTEsMC0xLjUxYy0wLjc2LDAtMC43NiwwLTAuNzYsMFYzMi4wM3ogTTIyLjQ5LDMyLjAzYzAsMi4zMywwLDIuMzMsMCwyLjMzICAgICAgYy0wLjg4LDAtMC44OCwwLTAuODgsMGMtMC4zOC0wLjg4LTEuMi0xLjU3LTIuMjEtMS41N2MtMSwwLTEuODIsMC42OS0yLjIsMS41N2MtNi4zNiwwLTYuMzYsMC02LjM2LDBjMC0zLjA4LDAtMy4wOCwwLTMuMDggICAgICBjMTAuODMsMCwxMC44MywwLDEwLjgzLDBDMjIuMTgsMzEuMjgsMjIuNDksMzEuNTksMjIuNDksMzIuMDN6IE0xNS45NCwyOS43Yy01LjEsMC01LjEsMC01LjEsMGMwLTEuNTEsMC0xLjUxLDAtMS41MSAgICAgIGMzLjU5LDAsMy41OSwwLDMuNTksMEwxNS45NCwyOS43eiBNOC4wNiwyOC4xOWMxLjI2LDAsMS4yNiwwLDEuMjYsMGMwLDEuNTEsMCwxLjUxLDAsMS41MWMtMi43NywwLTIuNzcsMC0yLjc3LDBMOC4wNiwyOC4xOXogICAgICAgTTIuMzMsMzMuNmMwLTEuMzIsMS4wMS0yLjMyLDIuNC0yLjMyYzQuNTksMCw0LjU5LDAsNC41OSwwYzAsMy4wOCwwLDMuMDgsMCwzLjA4Yy0xLjcsMC0xLjcsMC0xLjcsMCAgICAgIGMtMC4zMS0wLjg4LTEuMTMtMS41Ny0yLjE0LTEuNTdzLTEuODksMC42OS0yLjIsMS41N2MtMC45NSwwLTAuOTUsMC0wLjk1LDBMMi4zMywzMy42eiBNNS40OCwzNS44NyAgICAgIGMtMC40NCwwLTAuNzUtMC4zMi0wLjc1LTAuNzZjMC0wLjM3LDAuMzEtMC43NSwwLjc1LTAuNzVjMC4zOCwwLDAuNzYsMC4zOCwwLjc2LDAuNzVDNi4yNCwzNS41NSw1Ljg2LDM1Ljg3LDUuNDgsMzUuODd6ICAgICAgIE0xOS40LDM1Ljg3Yy0wLjQ0LDAtMC43NS0wLjMyLTAuNzUtMC43NmMwLTAuMzcsMC4zMS0wLjc1LDAuNzUtMC43NWMwLjQ1LDAsMC43NiwwLjM4LDAuNzYsMC43NSAgICAgIEMyMC4xNiwzNS41NSwxOS44NSwzNS44NywxOS40LDM1Ljg3eiIvPiYjeGE7CQkJPC9nPiYjeGE7CQkJPGcgaWQ9InNoYXBlNDMzMi0xNSIgdHJhbnNmb3JtPSJ0cmFuc2xhdGUoMS4wOTgyNSwtMS43MzMwNSkiPiYjeGE7CQkJCTx0aXRsZSBpZD0idGl0bGUxMjI0OCI+U2hlZXQuNDMzMjwvdGl0bGU+JiN4YTsJCQkJPHBhdGggaWQ9InBhdGgxMjI1MCIgaW5rc2NhcGU6Y29ubmVjdG9yLWN1cnZhdHVyZT0iMCIgc3R5bGU9ImZpbGw6IzAwQjBGMDsiIGQ9Ik0wLDguOHYyOC43MWg0OC43N1Y4LjhIMHoiLz4mI3hhOwkJCTwvZz4mI3hhOwkJPC9nPiYjeGE7CQk8ZyBpZD0iZ3JvdXA0MzMzLTE3IiB0cmFuc2Zvcm09InRyYW5zbGF0ZSgxNS4wNjkyLC01LjQ0NjY2KSI+JiN4YTsJCQk8dGl0bGUgaWQ9InRpdGxlMTIyNTQiPldlYnNpdGVzPC90aXRsZT4mI3hhOwkJCTxnIGlkPSJzaGFwZTQzMzQtMTgiPiYjeGE7CQkJCTx0aXRsZSBpZD0idGl0bGUxMjI1NiI+U2hlZXQuNDMzNDwvdGl0bGU+JiN4YTsJCQkJPHBhdGggaWQ9InBhdGgxMjI1OCIgaW5rc2NhcGU6Y29ubmVjdG9yLWN1cnZhdHVyZT0iMCIgc3R5bGU9ImZpbGw6I0ZGRkZGRjsiIGQ9Ik0xMC40OSwxNi41M2M1LjgsMCwxMC41OSw0LjY2LDEwLjU5LDEwLjQzICAgICAgYzAsNS44OS00Ljc5LDEwLjU1LTEwLjU5LDEwLjU1QzQuNjksMzcuNTEsMCwzMi44NSwwLDI2Ljk2QzAsMjEuMTksNC42OSwxNi41MywxMC40OSwxNi41M3ogTTE0LjM5LDM1LjYyICAgICAgYy0wLjMzLTEuNzgsMC42Ny00Ljc3LDAuMTEtNS4zM2MtMC4yMi0wLjExLTAuNDQtMC4yMi0wLjY3LTAuMTFjLTAuNDQsMC4xMS0wLjg5LDAuMzMtMS4yMiwwLjIyYy0xLjktMC44OC0wLjc4LTMuODgsMS4xMS00LjU1ICAgICAgYzAuMzQtMC4xMSwwLjY3LTAuMTEsMS4wMS0wLjExYzAuNTUtMC4xMSwwLjg5LTAuMTEsMC44OSwwLjIyYzAsMC40NSwwLjg5LDAuNzgsMS4xMSwwLjc4YzAuMTIsMCwwLjEyLTAuMzMsMC4yMy0wLjMzICAgICAgYzAuNzgsMCwxLjMzLDAuNDQsMS40NSwwLjExYzAuMjItMS4xMSwwLjExLTAuNTYtMC43OS0wLjY3Yy0wLjMzLTAuMTEtMC4xMS0wLjY2LTAuNDQtMC42NmMtMC4yMi0wLjExLDAuMTEsMC42Ni0wLjIyLDAuNDQgICAgICBjLTAuNDUtMC4zMy0wLjY3LTEuMTEtMS4xMi0xLjIyYy0wLjU2LTAuMTEsMC4zNCwwLjQ0LDAuNDUsMC43OGMwLjExLDAuMzMtMC4zNCwwLjc3LTAuNTYsMC40NGMtMC4xMS0wLjExLDAuNDUtMC40NC0wLjIzLTAuODkgICAgICBjLTAuMTEtMC4yMi0wLjQ0LTAuMjItMC42NiwwYy0wLjM0LDAuMzQtMC40NSwwLjY3LTAuNTYsMC42N2MtMC4zNCwwLjIyLTAuNTYsMC4yMi0wLjg5LDAuMTFjLTAuNDUtMC4xMS0wLjM0LTEuMTEsMC4xMS0xICAgICAgYzEuMzQsMC4zMywwLjExLTAuNDQsMC40NC0wLjY2YzAuMTItMC4xMiwwLjU2LTAuNDUsMC43OS0wLjc4YzAuMjItMC4yMywwLjExLTAuODksMC41NS0wLjc4YzAuMjIsMCwwLjExLDAuNDQsMC4zNCwwLjU1ICAgICAgYzAuMTEsMC4xMSwwLjQ0LDAsMC42NywwYzAuMzMsMCwwLjMzLTAuMjIsMC4zMy0wLjU1YzAtMC40NCwwLjc4LTAuMzMsMC43OC0wLjU2Yy0wLjExLTAuMzMtMC44OSwwLjEyLTAuODktMC4zMyAgICAgIGMwLTAuNTUsMC42Ny0wLjY2LDAuMjItMC43N2MtMC4zMy0wLjEyLTAuNzgsMC4yMi0wLjY3LDAuOTljMC4xMiwwLjc4LDAuMjMsMS4xMS0wLjMzLDAuODljLTAuNDUtMC4zMywwLjExLTAuODktMC4zNC0wLjY2ICAgICAgYy0wLjMzLDAuMjItMC41NSwwLjMzLTAuNTUtMC4yM2MwLTAuNDQsMC44OS0xLjc3LDEuNTYtMS45OWMtMS4yMy0xLTIuNjgtMS42Ny00LjM1LTEuODlsMCwwYzAsMC44OSwwLDEuNDQtMC4xMSwxLjg5ICAgICAgYzAsMC41NS0xLjY3LDAuNjYtMS45LDEuNjZjLTAuMjIsMC44OS0wLjU2LDAuMzMtMS4xMi0wLjMzYy0wLjU1LTAuNjcsMC4xMi0xLjU1LTAuMjItMi4xMWMtMC4yMi0wLjU2LTEuMjIsMC4yMi0xLjIyLTAuMzQgICAgICBjMC0wLjIyLDAuMjItMC40NCwwLjIyLTAuNTVjLTAuMTEsMC4xMS0wLjIyLDAuMTEtMC4zNCwwLjExYy0wLjMzLDAuMjItMC41NiwwLjg5LTAuNjcsMWMtMC4zMywwLjQ1LDAuNDUsMC4zNCwwLjc5LDAuNzggICAgICBjMC40NCwwLjY2LDAuNzgsMS4xMSwwLjU1LDEuNDRjLTAuMTEsMC4zMy0xLjQ1LDAtMS4yMy0wLjU1YzAuMzQtMC41NiwwLjEyLTAuNjctMC4yMi0wLjc4Yy0wLjMzLDAtMC4zMywwLjQ0LTAuMzMsMSAgICAgIGMwLDAuNDQtMC44OSwwLjU1LTEuMzQsMWMtMC40NSwwLjU1LDAuMzMsMC45OSwxLjAxLDEuMjJjMC42NiwwLjIyLDAuMjItMC44OSwwLjQ0LTEuNDVjMC4yMi0wLjc3LDEtMC4xMSwxLjU2LDAuNTYgICAgICBjMC40NSwwLjY2LDEuMjMsMS41NiwwLjIzLDJjLTEuNjgsMC42Ni0yLjM1LDEuNDQtMi42OCwyLjExYy0wLjM0LDAuNjYsMCwwLjk5LTAuMjMsMS4yMmMtMC4yMiwwLjIyLTAuMjItMC4xMS0wLjQ0LTAuNjcgICAgICBjLTAuMjMtMC4zMy0xLTAuMzMtMS4zNCwwLjMzYy0wLjIyLDAuMTEtMC4yMiwwLjQ1LTAuMjIsMC43OGMwLDEuMTEsMC43OC0wLjMzLDEuMjItMC4xMWMwLjU2LDAuMTEtMC40NCwwLjIyLTAuMzMsMC42NyAgICAgIGMwLjExLDAuNDQsMC43OC0wLjIyLDAuNTYsMC43N2MtMC4xMiwwLjU2LDAuNzgsMC4xMiwxLjM0LTAuMTFjMS4yMi0wLjQ0LDIuMTIsMS41NiwzLjAxLDEuODljMSwwLjMzLDEuMzQsMC41NSwxLjExLDEgICAgICBjLTAuNjcsMS4zMy0yLDIuMjItMi42NywzLjc3YzAuODksMC4zMywyLDAuNDUsMy4wMSwwLjQ1QzExLjk0LDM2LjQsMTMuMTYsMzYuMTcsMTQuMzksMzUuNjJ6IE0xOS43NCwyOS4xOCAgICAgIGMtMC4yMiwwLTAuNDQsMC4xMS0wLjU1LDAuMTFjLTAuNTYtMC4yMi0wLjIyLTIuNDQtMS4wMS0yLjMzYy0wLjMzLDAuMTEsMC4yMywxLjc4LDEuMDEsMi42N2MwLjExLDAuMTEsMC4yMiwwLDAuNDQsMCAgICAgIEMxOS42MywyOS41MiwxOS43NCwyOS4yOSwxOS43NCwyOS4xOHogTTE5LjE5LDMwLjc0Yy0wLjktMC4yMy0xLjU3LDEuNzctMS43OSwyLjY2QzE4LjE4LDMyLjYyLDE4Ljc0LDMxLjczLDE5LjE5LDMwLjc0eiAgICAgICBNNS44LDM1LjE4YzAuMTItMC44OSwwLjIzLTEuODksMC0yYy0wLjc4LTAuNjctMS4zNC0xLjY3LTAuNTYtMi42N2MwLjEyLTAuMTEsMC4yMy0wLjIyLDAuMjMtMC40NCAgICAgIGMwLjExLTAuMzMtMC4yMy0wLjExLTAuNzgtMC4xMWMtMC41NiwwLTAuMTItMC44OS0xLjIzLTFjLTEuMTItMC4xMS0xLjEyLTAuMzMtMS4yMy0xYzAtMC42Ny0wLjY2LTEuMzMtMS4yMi0xLjQ0ICAgICAgYzAsMC4xMSwwLDAuMzMsMCwwLjQ0QzEuMDEsMzAuNTEsMy4wMSwzMy42Miw1LjgsMzUuMTh6IE0xMi4wNSwyMS4wOGMwLjQ1LDAuMjIsMC44OS0wLjExLDAuNzgtMC40NCAgICAgIEMxMi41LDIwLjA4LDExLjQ5LDIwLjQxLDEyLjA1LDIxLjA4eiBNMTMuOTQsMjEuOTdjMC4zNCwwLDAuNTYsMC42NiwwLjQ1LDAuOTljLTAuMjIsMC42Ny0wLjc4LDAuMjMtMC44OS0wLjIyICAgICAgQzEzLjUsMjIuMywxMy42MSwyMS45NywxMy45NCwyMS45N3ogTTE3LjYyLDI1LjA4Yy0wLjMzLTAuMzQtMC4yMi0wLjc4LDAuMjMtMC44OWMwLjc4LTAuMTEsMS43OCwwLjY2LDEuMTIsMC44OSAgICAgIEMxOC42MywyNS4xOSwxOC4wNywyNS4xOSwxNy42MiwyNS4wOHogTTUuMTMsMjcuODVjMC4zNCwwLDEuMjMsMC4yMiwxLjQ1LDAuNDVjMC4yMiwwLjMzLTAuNjYsMC4yMi0xLjIyLDAgICAgICBDNS4wMiwyOC4xOCw0LjgsMjcuOTYsNS4xMywyNy44NXoiLz4mI3hhOwkJCTwvZz4mI3hhOwkJPC9nPiYjeGE7CTwvZz4mI3hhOzwvZz4mI3hhOzwvc3ZnPg==;" vertex="1" parent="1">
          <mxGeometry x="-404.28" y="444.6099999999999" width="95" height="70.78" as="geometry" />
        </mxCell>
        <mxCell id="fgc3vrZuvSIC2WE5N4Ma-10" value="" style="group" vertex="1" connectable="0" parent="1">
          <mxGeometry x="-404.28" y="615" width="95" height="98" as="geometry" />
        </mxCell>
        <mxCell id="UEzPUAAOIrF-is8g5C7q-98" value="S3 Bucket&amp;nbsp;&lt;div&gt;Static Hosted Website&lt;/div&gt;" style="outlineConnect=0;fontColor=#232F3E;gradientColor=none;fillColor=#277116;strokeColor=none;dashed=0;verticalLabelPosition=bottom;verticalAlign=top;align=center;html=1;fontSize=12;fontStyle=0;aspect=fixed;pointerEvents=1;shape=mxgraph.aws4.bucket;labelBackgroundColor=#ffffff;" parent="fgc3vrZuvSIC2WE5N4Ma-10" vertex="1">
          <mxGeometry width="94.23" height="98" as="geometry" />
        </mxCell>
        <mxCell id="fgc3vrZuvSIC2WE5N4Ma-5" value="" style="shape=image;verticalLabelPosition=bottom;labelBackgroundColor=#ffffff;verticalAlign=top;aspect=fixed;imageAspect=0;image=data:image/svg+xml,PHN2ZyB4bWxuczpjYz0iaHR0cDovL2NyZWF0aXZlY29tbW9ucy5vcmcvbnMjIiB4bWxuczpkYz0iaHR0cDovL3B1cmwub3JnL2RjL2VsZW1lbnRzLzEuMS8iIHhtbG5zOmlua3NjYXBlPSJodHRwOi8vd3d3Lmlua3NjYXBlLm9yZy9uYW1lc3BhY2VzL2lua3NjYXBlIiB4bWxuczpyZGY9Imh0dHA6Ly93d3cudzMub3JnLzE5OTkvMDIvMjItcmRmLXN5bnRheC1ucyMiIHhtbG5zOnNvZGlwb2RpPSJodHRwOi8vc29kaXBvZGkuc291cmNlZm9yZ2UubmV0L0RURC9zb2RpcG9kaS0wLmR0ZCIgeG1sbnM6c3ZnPSJodHRwOi8vd3d3LnczLm9yZy8yMDAwL3N2ZyIgeG1sbnM9Imh0dHA6Ly93d3cudzMub3JnLzIwMDAvc3ZnIiB4bWxuczp4bGluaz0iaHR0cDovL3d3dy53My5vcmcvMTk5OS94bGluayIgdmVyc2lvbj0iMS4xIiBpZD0ic3ZnNDc5MzAiIGlua3NjYXBlOnZlcnNpb249IjAuOTIuMyAoMjQwNTU0NiwgMjAxOC0wMy0xMSkiIHNvZGlwb2RpOmRvY25hbWU9Imh0bWwuc3ZnIiB4PSIwcHgiIHk9IjBweCIgdmlld0JveD0iMCAwIDI2Ljk5IDM1LjE1IiBzdHlsZT0iZW5hYmxlLWJhY2tncm91bmQ6bmV3IDAgMCAyNi45OSAzNS4xNTsiIHhtbDpzcGFjZT0icHJlc2VydmUiPiYjeGE7PHNvZGlwb2RpOm5hbWVkdmlldyBib3JkZXJjb2xvcj0iIzY2NjY2NiIgYm9yZGVyb3BhY2l0eT0iMSIgZml0LW1hcmdpbi1ib3R0b209IjAiIGZpdC1tYXJnaW4tbGVmdD0iMCIgZml0LW1hcmdpbi1yaWdodD0iMCIgZml0LW1hcmdpbi10b3A9IjAiIGdyaWR0b2xlcmFuY2U9IjEwIiBndWlkZXRvbGVyYW5jZT0iMTAiIGlkPSJuYW1lZHZpZXc0NzkzMiIgaW5rc2NhcGU6Y3VycmVudC1sYXllcj0ic3ZnNDc5MzAiIGlua3NjYXBlOmN4PSIxNy45OTQzODQiIGlua3NjYXBlOmN5PSIyMy40MzU4NSIgaW5rc2NhcGU6cGFnZW9wYWNpdHk9IjAiIGlua3NjYXBlOnBhZ2VzaGFkb3c9IjIiIGlua3NjYXBlOndpbmRvdy1oZWlnaHQ9IjEwMTciIGlua3NjYXBlOndpbmRvdy1tYXhpbWl6ZWQ9IjEiIGlua3NjYXBlOndpbmRvdy13aWR0aD0iMTkyMCIgaW5rc2NhcGU6d2luZG93LXg9Ii04IiBpbmtzY2FwZTp3aW5kb3cteT0iLTgiIGlua3NjYXBlOnpvb209IjExLjQwNjA4OSIgb2JqZWN0dG9sZXJhbmNlPSIxMCIgcGFnZWNvbG9yPSIjZmZmZmZmIiBzaG93Z3JpZD0iZmFsc2UiPiYjeGE7CTwvc29kaXBvZGk6bmFtZWR2aWV3PiYjeGE7PGcgaWQ9Imc0NzkyOCIgdHJhbnNmb3JtPSJ0cmFuc2xhdGUoLTEwLjkyODYsLTEwLjkzMTQzNCkiPiYjeGE7CTx0aXRsZSBpZD0idGl0bGU0Nzg2OSI+UGFnZS0xPC90aXRsZT4mI3hhOwk8ZyBpZD0iZ3JvdXA0MjI4LTEiIHRyYW5zZm9ybT0idHJhbnNsYXRlKDEwLjkyODYsLTEwLjkyODYpIj4mI3hhOwkJPHRpdGxlIGlkPSJ0aXRsZTQ3ODcxIj5IVE1MPC90aXRsZT4mI3hhOwkJPGcgaWQ9Imdyb3VwNDIyOS0yIj4mI3hhOwkJCTx0aXRsZSBpZD0idGl0bGU0Nzg3MyI+U2hlZXQuNDIyOTwvdGl0bGU+JiN4YTsJCQk8ZyBpZD0ic2hhcGU0MjMwLTMiPiYjeGE7CQkJCTx0aXRsZSBpZD0idGl0bGU0Nzg3NSI+U2hlZXQuNDIzMDwvdGl0bGU+JiN4YTsJCQkJPHBhdGggaWQ9InBhdGg0Nzg3NyIgaW5rc2NhcGU6Y29ubmVjdG9yLWN1cnZhdHVyZT0iMCIgc3R5bGU9ImZpbGw6I0U5RTlFMDsiIGQ9Ik0xOS4xNCwyMS44NkgwLjkyQzAuNDEsMjEuODYsMCwyMi4yNywwLDIzLjA3ICAgICAgdjMzLjMxYzAsMC4yMiwwLjQxLDAuNjMsMC45MiwwLjYzaDI1LjE1YzAuNTEsMCwwLjkyLTAuNDEsMC45Mi0wLjYzVjMwYzAtMC40My0wLjA2LTAuNTctMC4xNi0wLjY4bC03LjMtNy4zICAgICAgQzE5LjQyLDIxLjkyLDE5LjI4LDIxLjg2LDE5LjE0LDIxLjg2eiIvPiYjeGE7CQkJPC9nPiYjeGE7CQkJPGcgaWQ9InNoYXBlNDIzMS01IiB0cmFuc2Zvcm09InRyYW5zbGF0ZSgxOS40NTkxLC0yNy42MTkzKSI+JiN4YTsJCQkJPHRpdGxlIGlkPSJ0aXRsZTQ3ODgwIj5TaGVldC40MjMxPC90aXRsZT4mI3hhOwkJCQk8cGF0aCBpZD0icGF0aDQ3ODgyIiBpbmtzY2FwZTpjb25uZWN0b3ItY3VydmF0dXJlPSIwIiBzdHlsZT0iZmlsbDojRDlEN0NBOyIgZD0iTTAsNDkuNTd2Ny40NGg3LjQ0TDAsNDkuNTd6Ii8+JiN4YTsJCQk8L2c+JiN4YTsJCQk8ZyBpZD0ic2hhcGU0MjMyLTciPiYjeGE7CQkJCTx0aXRsZSBpZD0idGl0bGU0Nzg4NSI+U2hlZXQuNDIzMjwvdGl0bGU+JiN4YTsJCQkJPHBhdGggaWQ9InBhdGg0Nzg4NyIgaW5rc2NhcGU6Y29ubmVjdG9yLWN1cnZhdHVyZT0iMCIgc3R5bGU9ImZpbGw6I0VDNjYzMDsiIGQ9Ik0yNi4wNyw1Ny4wMUgwLjkyQzAuNDEsNTcuMDEsMCw1Ni42LDAsNTYuMDkgICAgICB2LTkuNzVoMjYuOTl2OS43NUMyNi45OSw1Ni42LDI2LjU4LDU3LjAxLDI2LjA3LDU3LjAxeiIvPiYjeGE7CQkJPC9nPiYjeGE7CQkJPGcgaWQ9Imdyb3VwNDIzMy05IiB0cmFuc2Zvcm09InRyYW5zbGF0ZSgyLjA2MjAzLC0xLjg4MzE0KSI+JiN4YTsJCQkJPHRpdGxlIGlkPSJ0aXRsZTQ3ODkwIj5TaGVldC40MjMzPC90aXRsZT4mI3hhOwkJCQk8ZyBpZD0ic2hhcGU0MjM0LTEwIj4mI3hhOwkJCQkJPHRpdGxlIGlkPSJ0aXRsZTQ3ODkyIj5TaGVldC40MjM0PC90aXRsZT4mI3hhOwkJCQkJPHBhdGggaWQ9InBhdGg0Nzg5NCIgaW5rc2NhcGU6Y29ubmVjdG9yLWN1cnZhdHVyZT0iMCIgc3R5bGU9ImZpbGw6I0ZGRkZGRjsiIGQ9Ik00LjgxLDUwLjY4djYuMzNIMy43OHYtMi44NUgxLjA1djIuODVIMCAgICAgICB2LTYuMzNoMS4wNXYyLjc4aDIuNzN2LTIuNzhINC44MXoiLz4mI3hhOwkJCQk8L2c+JiN4YTsJCQkJPGcgaWQ9InNoYXBlNDIzNS0xMiIgdHJhbnNmb3JtPSJ0cmFuc2xhdGUoNi4wNTkzKSI+JiN4YTsJCQkJCTx0aXRsZSBpZD0idGl0bGU0Nzg5NyI+U2hlZXQuNDIzNTwvdGl0bGU+JiN4YTsJCQkJCTxwYXRoIGlkPSJwYXRoNDc4OTkiIGlua3NjYXBlOmNvbm5lY3Rvci1jdXJ2YXR1cmU9IjAiIHN0eWxlPSJmaWxsOiNGRkZGRkY7IiBkPSJNNC44MSw1MC42OHYwLjcxSDIuOTN2NS42MkgxLjg5di01LjYySDAgICAgICAgdi0wLjcxSDQuODF6Ii8+JiN4YTsJCQkJPC9nPiYjeGE7CQkJCTxnIGlkPSJzaGFwZTQyMzYtMTQiIHRyYW5zZm9ybT0idHJhbnNsYXRlKDEyLjEwMDQpIj4mI3hhOwkJCQkJPHRpdGxlIGlkPSJ0aXRsZTQ3OTAyIj5TaGVldC40MjM2PC90aXRsZT4mI3hhOwkJCQkJPHBhdGggaWQ9InBhdGg0NzkwNCIgaW5rc2NhcGU6Y29ubmVjdG9yLWN1cnZhdHVyZT0iMCIgc3R5bGU9ImZpbGw6I0ZGRkZGRjsiIGQ9Ik00LjgsNTAuNjhoMS4wNHY2LjMzSDQuOHYtNC4zNWwtMS40MiwzLjUyICAgICAgIEgyLjQ3bC0xLjQyLTMuNTJ2NC4zNUgwdi02LjMzaDEuMDVsMS44OCw0LjMzTDQuOCw1MC42OHoiLz4mI3hhOwkJCQk8L2c+JiN4YTsJCQkJPGcgaWQ9InNoYXBlNDIzNy0xNiIgdHJhbnNmb3JtPSJ0cmFuc2xhdGUoMTkuNTMyNSkiPiYjeGE7CQkJCQk8dGl0bGUgaWQ9InRpdGxlNDc5MDciPlNoZWV0LjQyMzc8L3RpdGxlPiYjeGE7CQkJCQk8cGF0aCBpZD0icGF0aDQ3OTA5IiBpbmtzY2FwZTpjb25uZWN0b3ItY3VydmF0dXJlPSIwIiBzdHlsZT0iZmlsbDojRkZGRkZGOyIgZD0iTTEuMDUsNTAuNjh2NS41NWgyLjkxdjAuNzhIMHYtNi4zM0gxLjA1eiIvPiYjeGE7CQkJCTwvZz4mI3hhOwkJCTwvZz4mI3hhOwkJCTxnIGlkPSJncm91cDQyMzgtMTgiIHRyYW5zZm9ybT0idHJhbnNsYXRlKDUuNTg3ODksLTE2LjMyMDUpIj4mI3hhOwkJCQk8dGl0bGUgaWQ9InRpdGxlNDc5MTMiPlNoZWV0LjQyMzg8L3RpdGxlPiYjeGE7CQkJCTxnIGlkPSJzaGFwZTQyMzktMTkiPiYjeGE7CQkJCQk8dGl0bGUgaWQ9InRpdGxlNDc5MTUiPlNoZWV0LjQyMzk8L3RpdGxlPiYjeGE7CQkJCQk8cGF0aCBpZD0icGF0aDQ3OTE3IiBpbmtzY2FwZTpjb25uZWN0b3ItY3VydmF0dXJlPSIwIiBzdHlsZT0iZmlsbDojRUM2NjMwOyIgZD0iTTQuOSw0OC40Yy0wLjI1LTAuMjQtMC42NC0wLjI0LTAuODksMCAgICAgICBsLTMuNzYsMy43N0MwLDUyLjQyLDAsNTIuODEsMC4yNSw1My4wNmwzLjc2LDMuNzdjMC4xMiwwLjEyLDAuMjgsMC4xOCwwLjQ1LDAuMThjMC4xNiwwLDAuMzItMC4wNiwwLjQ0LTAuMTggICAgICAgYzAuMjQtMC4yNSwwLjI0LTAuNjUsMC0wLjg5bC0zLjMyLTMuMzJsMy4zMi0zLjMzQzUuMTQsNDkuMDUsNS4xNCw0OC42NSw0LjksNDguNHoiLz4mI3hhOwkJCQk8L2c+JiN4YTsJCQkJPGcgaWQ9InNoYXBlNDI0MC0yMSIgdHJhbnNmb3JtPSJ0cmFuc2xhdGUoMTEuMjk4OCkiPiYjeGE7CQkJCQk8dGl0bGUgaWQ9InRpdGxlNDc5MjAiPlNoZWV0LjQyNDA8L3RpdGxlPiYjeGE7CQkJCQk8cGF0aCBpZD0icGF0aDQ3OTIyIiBpbmtzY2FwZTpjb25uZWN0b3ItY3VydmF0dXJlPSIwIiBzdHlsZT0iZmlsbDojRUM2NjMwOyIgZD0iTTQuOSw1Mi4xN0wxLjEzLDQ4LjQgICAgICAgYy0wLjI0LTAuMjQtMC42NC0wLjI0LTAuODgsMEMwLDQ4LjY1LDAsNDkuMDUsMC4yNSw0OS4yOWwzLjMyLDMuMzNsLTMuMzIsMy4zMkMwLDU2LjE4LDAsNTYuNTgsMC4yNSw1Ni44MyAgICAgICBjMC4xMiwwLjEyLDAuMjgsMC4xOCwwLjQ0LDAuMThzMC4zMi0wLjA2LDAuNDQtMC4xOGwzLjc3LTMuNzdDNS4xNCw1Mi44MSw1LjE0LDUyLjQyLDQuOSw1Mi4xN3oiLz4mI3hhOwkJCQk8L2c+JiN4YTsJCQk8L2c+JiN4YTsJCTwvZz4mI3hhOwk8L2c+JiN4YTs8L2c+JiN4YTs8L3N2Zz4=;" vertex="1" parent="fgc3vrZuvSIC2WE5N4Ma-10">
          <mxGeometry x="15.082245569351592" y="40" width="27" height="35" as="geometry" />
        </mxCell>
        <mxCell id="fgc3vrZuvSIC2WE5N4Ma-9" value="" style="shape=image;verticalLabelPosition=bottom;labelBackgroundColor=#ffffff;verticalAlign=top;aspect=fixed;imageAspect=0;image=data:image/svg+xml,PHN2ZyB4bWxuczpjYz0iaHR0cDovL2NyZWF0aXZlY29tbW9ucy5vcmcvbnMjIiB4bWxuczpkYz0iaHR0cDovL3B1cmwub3JnL2RjL2VsZW1lbnRzLzEuMS8iIHhtbG5zOmlua3NjYXBlPSJodHRwOi8vd3d3Lmlua3NjYXBlLm9yZy9uYW1lc3BhY2VzL2lua3NjYXBlIiB4bWxuczpyZGY9Imh0dHA6Ly93d3cudzMub3JnLzE5OTkvMDIvMjItcmRmLXN5bnRheC1ucyMiIHhtbG5zOnNvZGlwb2RpPSJodHRwOi8vc29kaXBvZGkuc291cmNlZm9yZ2UubmV0L0RURC9zb2RpcG9kaS0wLmR0ZCIgeG1sbnM6c3ZnPSJodHRwOi8vd3d3LnczLm9yZy8yMDAwL3N2ZyIgeG1sbnM9Imh0dHA6Ly93d3cudzMub3JnLzIwMDAvc3ZnIiB4bWxuczp4bGluaz0iaHR0cDovL3d3dy53My5vcmcvMTk5OS94bGluayIgdmVyc2lvbj0iMS4xIiBpZD0ic3ZnMTgxMDA3IiBpbmtzY2FwZTp2ZXJzaW9uPSIwLjkyLjMgKDI0MDU1NDYsIDIwMTgtMDMtMTEpIiBzb2RpcG9kaTpkb2NuYW1lPSJqYXZhc2NyaXB0LnN2ZyIgeD0iMHB4IiB5PSIwcHgiIHZpZXdCb3g9IjAgMCA0NSA0NSIgc3R5bGU9ImVuYWJsZS1iYWNrZ3JvdW5kOm5ldyAwIDAgNDUgNDU7IiB4bWw6c3BhY2U9InByZXNlcnZlIj4mI3hhOzxzb2RpcG9kaTpuYW1lZHZpZXcgYm9yZGVyY29sb3I9IiM2NjY2NjYiIGJvcmRlcm9wYWNpdHk9IjEiIGZpdC1tYXJnaW4tYm90dG9tPSIwIiBmaXQtbWFyZ2luLWxlZnQ9IjAiIGZpdC1tYXJnaW4tcmlnaHQ9IjAiIGZpdC1tYXJnaW4tdG9wPSIwIiBncmlkdG9sZXJhbmNlPSIxMCIgZ3VpZGV0b2xlcmFuY2U9IjEwIiBpZD0ibmFtZWR2aWV3MTgxMDA5IiBpbmtzY2FwZTpjdXJyZW50LWxheWVyPSJzdmcxODEwMDciIGlua3NjYXBlOmN4PSIyOS45OTk5ODUiIGlua3NjYXBlOmN5PSIyOS45OTk5ODUiIGlua3NjYXBlOnBhZ2VvcGFjaXR5PSIwIiBpbmtzY2FwZTpwYWdlc2hhZG93PSIyIiBpbmtzY2FwZTp3aW5kb3ctaGVpZ2h0PSIxMDE3IiBpbmtzY2FwZTp3aW5kb3ctbWF4aW1pemVkPSIxIiBpbmtzY2FwZTp3aW5kb3ctd2lkdGg9IjE5MjAiIGlua3NjYXBlOndpbmRvdy14PSItOCIgaW5rc2NhcGU6d2luZG93LXk9Ii04IiBpbmtzY2FwZTp6b29tPSIxMy45ODM4NzgiIG9iamVjdHRvbGVyYW5jZT0iMTAiIHBhZ2Vjb2xvcj0iI2ZmZmZmZiIgc2hvd2dyaWQ9ImZhbHNlIj4mI3hhOwk8L3NvZGlwb2RpOm5hbWVkdmlldz4mI3hhOzxnIGlkPSJnMTgxMDA1IiB0cmFuc2Zvcm09InRyYW5zbGF0ZSgtMC43NSwtMC43NSkiPiYjeGE7CTx0aXRsZSBpZD0idGl0bGUxODA5ODMiPlBhZ2UtMTwvdGl0bGU+JiN4YTsJPGcgaWQ9Imdyb3VwMTExOC0xIiB0cmFuc2Zvcm09InRyYW5zbGF0ZSgwLjc1LC0wLjc1KSI+JiN4YTsJCTx0aXRsZSBpZD0idGl0bGUxODA5ODUiPkphdmFTY3JpcHQ8L3RpdGxlPiYjeGE7CQk8ZyBpZD0ic2hhcGUxMTE5LTIiPiYjeGE7CQkJPHRpdGxlIGlkPSJ0aXRsZTE4MDk4NyI+cmVjdDcwNzU8L3RpdGxlPiYjeGE7CQkJPHJlY3QgaWQ9InJlY3QxODA5ODkiIHk9IjEuNSIgc3R5bGU9ImZpbGw6I0U0Q0I1ODsiIHdpZHRoPSI0NSIgaGVpZ2h0PSI0NSIvPiYjeGE7CQk8L2c+JiN4YTsJCTxnIGlkPSJzaGFwZTExMjAtNCIgdHJhbnNmb3JtPSJ0cmFuc2xhdGUoMTIuMzM3NSwtMi41MTI1KSI+JiN4YTsJCQk8dGl0bGUgaWQ9InRpdGxlMTgwOTkyIj5wYXRoNzA3NzwvdGl0bGU+JiN4YTsJCQk8cGF0aCBpZD0icGF0aDE4MDk5NCIgaW5rc2NhcGU6Y29ubmVjdG9yLWN1cnZhdHVyZT0iMCIgc3R5bGU9ImZpbGw6IzQ0NDQ0NDsiIGQ9Ik04LjIzLDI1LjIzaDMuODZ2MTUuMzUgICAgIGMwLDMuNjctMi40Niw1LjkyLTUuNzIsNS45MkMxLjIzLDQ2LjUsMCw0Mi43NSwwLDQyLjc1bDMuNDEtMi4wOGMwLDAsMC45MiwyLjE2LDIuNiwyLjE2YzEuNjcsMCwyLjI1LTAuOTMsMi4yNS0yLjgyTDguMjMsMjUuMjMgICAgIHoiLz4mI3hhOwkJPC9nPiYjeGE7CQk8ZyBpZD0ic2hhcGUxMTIxLTYiIHRyYW5zZm9ybT0idHJhbnNsYXRlKDI2LjU1LC0yLjc3NSkiPiYjeGE7CQkJPHRpdGxlIGlkPSJ0aXRsZTE4MDk5NyI+cGF0aDcwNzk8L3RpdGxlPiYjeGE7CQkJPHBhdGggaWQ9InBhdGgxODA5OTkiIGlua3NjYXBlOmNvbm5lY3Rvci1jdXJ2YXR1cmU9IjAiIHN0eWxlPSJmaWxsOiM0NDQ0NDQ7IiBkPSJNOS43NiwzMC44OGwzLTEuOTcgICAgIGMtMC45OS0yLjEtMy4xMy0zLjQyLTUuNDYtMy4zNmMtNC4wOCwwLTYuMTEsMi41OC02LjExLDUuOTNzMy4xOSw1LjE2LDUuMzIsNi4wN2MyLjI1LDAuOTYsMy40MywxLjc5LDMuNDMsMy4xNyAgICAgYzAsMS4wMS0wLjg0LDIuMDEtMi42NCwyLjA3Yy0yLjg2LDAuMDktNC4wOS0yLjYyLTQuMDktMi42MkwwLDQyLjMzYzAsMCwxLjgsNC4xNyw3LjQyLDQuMTdjNS42MywwLDYuNi0zLjk3LDYuNi01LjgzICAgICBzLTAuNjYtNC40Ni00LjY1LTYuMjVjLTQtMS43OS00LjIzLTIuNjItNC4yMy0zLjU5YzAtMC45NiwwLjg0LTEuNywyLjE2LTEuN3MyLjQ2LDEuNywyLjQ2LDEuN0w5Ljc2LDMwLjg4eiIvPiYjeGE7CQkJPHBhdGggaWQ9InBhdGgxODEwMDEiIGlua3NjYXBlOmNvbm5lY3Rvci1jdXJ2YXR1cmU9IjAiIHN0eWxlPSJmaWxsOm5vbmU7IiBkPSJNOS43NiwzMC44OGwzLTEuOTdjLTAuOTktMi4xLTMuMTMtMy40Mi01LjQ2LTMuMzYgICAgIGMtNC4wOCwwLTYuMTEsMi41OC02LjExLDUuOTNzMy4xOSw1LjE2LDUuMzIsNi4wN2MyLjI1LDAuOTYsMy40MywxLjc5LDMuNDMsMy4xN2MwLDEuMDEtMC44NCwyLjAxLTIuNjQsMi4wNyAgICAgYy0yLjg2LDAuMDktNC4wOS0yLjYyLTQuMDktMi42MkwwLDQyLjMzYzAsMCwxLjgsNC4xNyw3LjQyLDQuMTdjNS42MywwLDYuNi0zLjk3LDYuNi01Ljgzcy0wLjY2LTQuNDYtNC42NS02LjI1ICAgICBjLTQtMS43OS00LjIzLTIuNjItNC4yMy0zLjU5YzAtMC45NiwwLjg0LTEuNywyLjE2LTEuN3MyLjQ2LDEuNywyLjQ2LDEuNyIvPiYjeGE7CQk8L2c+JiN4YTsJPC9nPiYjeGE7PC9nPiYjeGE7PC9zdmc+;" vertex="1" parent="fgc3vrZuvSIC2WE5N4Ma-10">
          <mxGeometry x="43.311047437121935" y="57" width="30" height="30" as="geometry" />
        </mxCell>
        <mxCell id="fgc3vrZuvSIC2WE5N4Ma-20" value="" style="edgeStyle=orthogonalEdgeStyle;rounded=0;orthogonalLoop=1;jettySize=auto;html=1;" edge="1" parent="1" source="fgc3vrZuvSIC2WE5N4Ma-1" target="UEzPUAAOIrF-is8g5C7q-85">
          <mxGeometry relative="1" as="geometry">
            <mxPoint x="-750" y="495" as="targetPoint" />
          </mxGeometry>
        </mxCell>
        <mxCell id="fgc3vrZuvSIC2WE5N4Ma-1" value="API Gateway" style="outlineConnect=0;dashed=0;verticalLabelPosition=bottom;verticalAlign=top;align=center;html=1;shape=mxgraph.aws3.api_gateway;fillColor=#D9A741;gradientColor=none;" vertex="1" parent="1">
          <mxGeometry x="-788" y="625" width="78" height="78" as="geometry" />
        </mxCell>
        <mxCell id="fgc3vrZuvSIC2WE5N4Ma-25" style="edgeStyle=orthogonalEdgeStyle;rounded=0;orthogonalLoop=1;jettySize=auto;html=1;" edge="1" parent="1" source="UEzPUAAOIrF-is8g5C7q-85" target="UEzPUAAOIrF-is8g5C7q-87">
          <mxGeometry relative="1" as="geometry" />
        </mxCell>
        <mxCell id="UEzPUAAOIrF-is8g5C7q-85" value="AWS Lambda" style="outlineConnect=0;fontColor=#232F3E;gradientColor=#F78E04;gradientDirection=north;fillColor=#D05C17;strokeColor=#ffffff;dashed=0;verticalLabelPosition=bottom;verticalAlign=top;align=center;html=1;fontSize=12;fontStyle=0;aspect=fixed;shape=mxgraph.aws4.resourceIcon;resIcon=mxgraph.aws4.lambda;labelBackgroundColor=#ffffff;spacingTop=6;" parent="1" vertex="1">
          <mxGeometry x="-710" y="441" width="78" height="78" as="geometry" />
        </mxCell>
        <mxCell id="fgc3vrZuvSIC2WE5N4Ma-23" value="Using the API Gateway to expose the Lambda as an endpoint" style="rounded=0;dashed=1;whiteSpace=wrap;" vertex="1" parent="1">
          <mxGeometry x="-852" y="504" width="120" height="60" as="geometry" />
        </mxCell>
        <mxCell id="fgc3vrZuvSIC2WE5N4Ma-26" value="Lambda writes reservation submissions to the DynamoDB table" style="rounded=0;dashed=1;whiteSpace=wrap;" vertex="1" parent="1">
          <mxGeometry x="-610" y="504" width="120" height="60" as="geometry" />
        </mxCell>
        <mxCell id="fgc3vrZuvSIC2WE5N4Ma-27" value="Simple Email Service" style="sketch=0;points=[[0,0,0],[0.25,0,0],[0.5,0,0],[0.75,0,0],[1,0,0],[0,1,0],[0.25,1,0],[0.5,1,0],[0.75,1,0],[1,1,0],[0,0.25,0],[0,0.5,0],[0,0.75,0],[1,0.25,0],[1,0.5,0],[1,0.75,0]];outlineConnect=0;fontColor=#232F3E;fillColor=#DD344C;strokeColor=#ffffff;dashed=0;verticalLabelPosition=bottom;verticalAlign=top;align=center;html=1;fontSize=12;fontStyle=0;aspect=fixed;shape=mxgraph.aws4.resourceIcon;resIcon=mxgraph.aws4.simple_email_service;" vertex="1" parent="1">
          <mxGeometry x="-710" y="255" width="78" height="78" as="geometry" />
        </mxCell>
        <mxCell id="UEzPUAAOIrF-is8g5C7q-80" value="Amazon&lt;br&gt;CloudWatch" style="outlineConnect=0;fontColor=#232F3E;gradientColor=#F34482;gradientDirection=north;fillColor=#BC1356;strokeColor=#ffffff;dashed=0;verticalLabelPosition=middle;verticalAlign=middle;align=left;html=1;fontSize=12;fontStyle=0;aspect=fixed;shape=mxgraph.aws4.resourceIcon;resIcon=mxgraph.aws4.cloudwatch;labelBackgroundColor=#ffffff;labelPosition=right;" parent="1" vertex="1">
          <mxGeometry x="-930" y="215" width="78" height="78" as="geometry" />
        </mxCell>
        <mxCell id="fgc3vrZuvSIC2WE5N4Ma-31" style="edgeStyle=orthogonalEdgeStyle;rounded=0;orthogonalLoop=1;jettySize=auto;html=1;entryX=1;entryY=0.5;entryDx=0;entryDy=0;" edge="1" parent="1" source="fgc3vrZuvSIC2WE5N4Ma-14" target="fgc3vrZuvSIC2WE5N4Ma-15">
          <mxGeometry relative="1" as="geometry" />
        </mxCell>
        <mxCell id="fgc3vrZuvSIC2WE5N4Ma-14" value="Customers" style="verticalLabelPosition=bottom;sketch=0;html=1;fillColor=#282828;strokeColor=none;verticalAlign=top;pointerEvents=1;align=center;shape=mxgraph.cisco_safe.people_places_things_icons.icon9;" vertex="1" parent="1">
          <mxGeometry x="-194" y="457.5" width="50" height="45" as="geometry" />
        </mxCell>
        <mxCell id="fgc3vrZuvSIC2WE5N4Ma-30" style="edgeStyle=orthogonalEdgeStyle;rounded=0;orthogonalLoop=1;jettySize=auto;html=1;entryX=0.567;entryY=0.026;entryDx=0;entryDy=0;entryPerimeter=0;" edge="1" parent="1" source="fgc3vrZuvSIC2WE5N4Ma-27" target="fgc3vrZuvSIC2WE5N4Ma-14">
          <mxGeometry relative="1" as="geometry" />
        </mxCell>
        <mxCell id="fgc3vrZuvSIC2WE5N4Ma-32" value="Lambda sends confirmation emails to customers using Simple Email Service" style="rounded=0;dashed=1;whiteSpace=wrap;" vertex="1" parent="1">
          <mxGeometry x="-660" y="365" width="130" height="60" as="geometry" />
        </mxCell>
        <mxCell id="fgc3vrZuvSIC2WE5N4Ma-33" value="Customers make reservations using the Static S3 hosted website" style="rounded=0;dashed=1;whiteSpace=wrap;" vertex="1" parent="1">
          <mxGeometry x="-284" y="526" width="130" height="60" as="geometry" />
        </mxCell>
        <mxCell id="fgc3vrZuvSIC2WE5N4Ma-36" value="Logging of AWS Services using CloudWatch" style="rounded=0;dashed=1;whiteSpace=wrap;" vertex="1" parent="1">
          <mxGeometry x="-920" y="305" width="112" height="60" as="geometry" />
        </mxCell>
        <mxCell id="fgc3vrZuvSIC2WE5N4Ma-42" value="AWS CDK Project: Cloud Reservation System&#xa;Using AWS CDK with python to develop a cheap reservation website, using an Infrastructure as Code approach. The website is deployed using S3 static hosting. The website consist of HTML, CSS and JavaScript.&#xa;&#xa;Flow of a reservation submission is as follows: 1. User accesses the static website hosted on S3. 2. User submits a reservation through the website. 3. The submission is sent to the API Gateway endpoint. 4. API Gateway triggers the Lambda function. 5. The Lambda function processes the reservation, writes it to DynamoDB, and sends a confirmation email via SES." style="rounded=0;dashed=1;labelPosition=center;verticalLabelPosition=middle;align=left;verticalAlign=middle;whiteSpace=wrap;textDirection=ltr;fontStyle=0;spacingTop=0;spacing=1;spacingLeft=5;" vertex="1" parent="1">
          <mxGeometry x="-1060" y="10" width="1010" height="110" as="geometry" />
        </mxCell>
      </root>
    </mxGraphModel>
  </diagram>
</mxfile>
